<svg viewBox="0 0 300 420" xmlns="http://www.w3.org/2000/svg" font-family="'Hiragino Mincho ProN','Yu Mincho','Noto Serif JP',serif">
  <defs>
    <linearGradient id="ag-bg" x1="0" y1="0" x2="0" y2="1">
      <stop offset="0" stop-color="#2b1f4e"/><stop offset="1" stop-color="#120c24"/>
    </linearGradient>
    <radialGradient id="ag-art" cx="0.5" cy="0.45" r="0.85">
      <stop offset="0" stop-color="#4a3a22"/><stop offset="0.65" stop-color="#2c2112"/><stop offset="1" stop-color="#1a1208"/>
    </radialGradient>
    <clipPath id="ag-clip"><rect x="22" y="66" width="256" height="196" rx="8"/></clipPath>
  </defs>
  <rect x="4" y="4" width="292" height="412" rx="16" fill="url(#ag-bg)" stroke="#8f7fd0" stroke-width="3"/>
  <rect x="11" y="11" width="278" height="398" rx="11" fill="none" stroke="#8f7fd0" stroke-opacity="0.35"/>
  <text x="150" y="42" text-anchor="middle" font-size="24" font-weight="bold" fill="#ede8ff">老 化</text>
  <text x="150" y="59" text-anchor="middle" font-size="10" letter-spacing="4" fill="#b3a4ea" font-family="Georgia,serif">AGING</text>
  <rect x="22" y="66" width="256" height="196" rx="8" fill="url(#ag-art)" stroke="#8f7fd0" stroke-opacity="0.6"/>
  <g clip-path="url(#ag-clip)">
    <circle cx="150" cy="160" r="84" fill="none" stroke="#d8c8a8" stroke-opacity="0.12" stroke-width="2"/>
    <g stroke="#d8c8a8" stroke-opacity="0.14" stroke-width="2">
      <line x1="150" y1="72" x2="150" y2="82"/><line x1="150" y1="238" x2="150" y2="248"/>
      <line x1="62" y1="160" x2="72" y2="160"/><line x1="228" y1="160" x2="238" y2="160"/>
      <line x1="88" y1="98" x2="95" y2="105"/><line x1="205" y1="215" x2="212" y2="222"/>
      <line x1="212" y1="98" x2="205" y2="105"/><line x1="95" y1="215" x2="88" y2="222"/>
    </g>
    <rect x="108" y="95" width="84" height="11" rx="3" fill="#6b4a2a" stroke="#4a3018"/>
    <rect x="108" y="212" width="84" height="11" rx="3" fill="#6b4a2a" stroke="#4a3018"/>
    <line x1="116" y1="106" x2="116" y2="212" stroke="#5a3d20" stroke-width="5"/>
    <line x1="184" y1="106" x2="184" y2="212" stroke="#5a3d20" stroke-width="5"/>
    <path d="M124 106 L176 106 L153 159 L176 212 L124 212 L147 159 Z" fill="#d8c8a8" fill-opacity="0.09" stroke="#d8c8a8" stroke-width="2" stroke-opacity="0.75"/>
    <path d="M136 124 L164 124 L151 152 L149 152 Z" fill="#d4b36a"/>
    <line x1="150" y1="159" x2="150" y2="204" stroke="#d4b36a" stroke-width="2" stroke-dasharray="3 3"/>
    <path d="M130 212 L170 212 L150 192 Z" fill="#d4b36a"/>
    <circle cx="146" cy="180" r="1.4" fill="#d4b36a"/>
    <circle cx="153" cy="170" r="1.2" fill="#d4b36a"/>
    <path d="M212 138 C226 130 236 132 242 142 C232 146 222 146 214 142 Z" fill="#7a5a30" transform="rotate(28 226 140)"/>
    <path d="M64 190 C76 182 86 184 92 194 C82 198 72 198 66 194 Z" fill="#6b4a26" transform="rotate(-20 78 192)"/>
    <circle cx="88" cy="128" r="1.6" fill="#d8c8a8" opacity="0.4"/>
    <circle cx="222" cy="182" r="1.4" fill="#d8c8a8" opacity="0.35"/>
    <circle cx="200" cy="90" r="1.2" fill="#d8c8a8" opacity="0.3"/>
  </g>
  <rect x="22" y="272" width="256" height="22" rx="4" fill="#8f7fd0" fill-opacity="0.14"/>
  <text x="150" y="287" text-anchor="middle" font-size="11" letter-spacing="2" fill="#b3a4ea">スペルカード</text>
  <text x="150" y="318" text-anchor="middle" font-size="15" font-weight="bold" fill="#f0ebff">戦場のストライカー1人の</text>
  <text x="150" y="340" text-anchor="middle" font-size="15" font-weight="bold" fill="#f0ebff">エネルギーを1下げる</text>
  <line x1="60" y1="360" x2="240" y2="360" stroke="#8f7fd0" stroke-opacity="0.35"/>
  <text x="150" y="386" text-anchor="middle" font-size="11" fill="#8f83b8">「時は誰にも等しく流れる」</text>
</svg>
