<svg viewBox="0 0 300 420" xmlns="http://www.w3.org/2000/svg" font-family="'Hiragino Mincho ProN','Yu Mincho','Noto Serif JP',serif">
  <defs>
    <linearGradient id="mo-bg" x1="0" y1="0" x2="0" y2="1">
      <stop offset="0" stop-color="#4a1414"/><stop offset="1" stop-color="#170404"/>
    </linearGradient>
    <radialGradient id="mo-art" cx="0.5" cy="0.42" r="0.85">
      <stop offset="0" stop-color="#5a1616"/><stop offset="0.65" stop-color="#2e0a0a"/><stop offset="1" stop-color="#170404"/>
    </radialGradient>
    <radialGradient id="mo-gem" cx="0.35" cy="0.3" r="0.9">
      <stop offset="0" stop-color="#9fe0ff"/><stop offset="1" stop-color="#1e5f9a"/>
    </radialGradient>
    <clipPath id="mo-clip"><rect x="22" y="66" width="256" height="196" rx="8"/></clipPath>
  </defs>
  <rect x="4" y="4" width="292" height="412" rx="16" fill="url(#mo-bg)" stroke="#c9a227" stroke-width="3"/>
  <rect x="11" y="11" width="278" height="398" rx="11" fill="none" stroke="#c9a227" stroke-opacity="0.4"/>
  <text x="150" y="42" text-anchor="middle" font-size="24" font-weight="bold" fill="#f5e9c8">怪 物</text>
  <text x="150" y="59" text-anchor="middle" font-size="10" letter-spacing="4" fill="#d8b95a" font-family="Georgia,serif">MONSTER</text>
  <rect x="22" y="66" width="256" height="196" rx="8" fill="url(#mo-art)" stroke="#c9a227" stroke-opacity="0.6"/>
  <g clip-path="url(#mo-clip)">
    <path d="M50 240 C60 218 52 200 62 184" fill="none" stroke="#1c0606" stroke-width="7" stroke-linecap="round" opacity="0.8"/>
    <path d="M250 244 C240 222 248 202 238 186" fill="none" stroke="#1c0606" stroke-width="7" stroke-linecap="round" opacity="0.8"/>
    <path d="M108 118 C90 96 88 76 98 60 C104 82 112 96 124 106 Z" fill="#d8c8a8" stroke="#a89468" stroke-width="1.5"/>
    <path d="M192 118 C210 96 212 76 202 60 C196 82 188 96 176 106 Z" fill="#d8c8a8" stroke="#a89468" stroke-width="1.5"/>
    <path d="M150 98 C200 103 220 145 211 186 C205 216 181 234 150 234 C119 234 95 216 89 186 C80 145 100 103 150 98 Z" fill="#3a1010" stroke="#200808" stroke-width="3"/>
    <circle cx="130" cy="150" r="11" fill="#ff8c2e" opacity="0.35"/>
    <circle cx="170" cy="150" r="11" fill="#ff8c2e" opacity="0.35"/>
    <path d="M116 152 L145 143 L141 160 Z" fill="#ffb02e"/>
    <path d="M184 152 L155 143 L159 160 Z" fill="#ffb02e"/>
    <path d="M144 172 L148 179 M156 172 L152 179" stroke="#200808" stroke-width="2.5" stroke-linecap="round"/>
    <path d="M110 190 C130 206 170 206 190 190 C182 224 118 224 110 190 Z" fill="#1a0505"/>
    <path d="M118 193 L124 208 L129 194 Z" fill="#f0e8d8"/>
    <path d="M136 197 L141 212 L146 198 Z" fill="#f0e8d8"/>
    <path d="M154 198 L159 212 L164 197 Z" fill="#f0e8d8"/>
    <path d="M171 194 L176 208 L182 193 Z" fill="#f0e8d8"/>
    <path d="M131 214 L135 205 L139 214 Z" fill="#e0d4bc"/>
    <path d="M161 214 L165 205 L169 214 Z" fill="#e0d4bc"/>
    <path d="M52 246 C58 236 62 236 64 244 M64 248 C70 236 74 236 76 246 M76 250 C82 240 86 240 88 248" stroke="#d8c8a8" stroke-width="3" fill="none" stroke-linecap="round"/>
    <path d="M212 248 C218 238 222 238 224 246 M224 250 C230 238 234 238 236 248" stroke="#d8c8a8" stroke-width="3" fill="none" stroke-linecap="round"/>
    <ellipse cx="150" cy="250" rx="96" ry="13" fill="#170404" opacity="0.9"/>
  </g>
  <circle cx="251" cy="93" r="17" fill="url(#mo-gem)" stroke="#c9a227" stroke-width="2.5"/>
  <text x="251" y="100" text-anchor="middle" font-size="19" font-weight="bold" fill="#ffffff" font-family="Georgia,serif">3</text>
  <rect x="22" y="272" width="256" height="22" rx="4" fill="#c9a227" fill-opacity="0.14"/>
  <text x="150" y="287" text-anchor="middle" font-size="11" letter-spacing="2" fill="#d8b95a">ストライカー ─ エネルギー 3</text>
  <text x="150" y="318" text-anchor="middle" font-size="14" font-weight="bold" fill="#f5efdd">毎ターン開始時に自国の</text>
  <text x="150" y="340" text-anchor="middle" font-size="14" font-weight="bold" fill="#f5efdd">護衛を1体生贄に捧げる</text>
  <line x1="60" y1="360" x2="240" y2="360" stroke="#c9a227" stroke-opacity="0.4"/>
  <text x="150" y="386" text-anchor="middle" font-size="11" fill="#b88d7a">「力の代償は、味方の血」</text>
</svg>
